# xmcd
#
# Track frame offsets:
#	150
#	14781
#	27424
#	48477
#	67517
#	79910
#	94058
#	106579
#	117907
#	133156
#	151236
#	166236
#	181852
#	194219
#
# Disc length: 2816 seconds
#
# Revision: 0
# Processed by: cddbd v1.5.2PL0 Copyright (c) Steve Scherf et al.
# Submitted via: EasyCDDAExtractor 11.1.0.1
#
DISCID=b50afe0e
DTITLE=Various Artist - Mr music country vol 6
DYEAR=2009
DGENRE=country
TTITLE0=Tracy Lawrence - Dear Lord
TTITLE1=Steff Nevers - The alphabet song
TTITLE2=Chuck Mead - Up on edge hill
TTITLE3=Carlene Carter - To change your heart
TTITLE4=Mike Aiken - Bottoms up
TTITLE5=Janie Brannon - Workin' my way through a heartache
TTITLE6=Rayburn Anthony - Easy goodbyes
TTITLE7=Mel McDaniel and Oklahoma Wind - Louisiana saturday night
TTITLE8=Becky Hobbs - A bibble and a sixpence
TTITLE9=Stan Martin - Set me free
TTITLE10=Michael Scott - Ray ray's juke joint
TTITLE11=Red Jenkins - Truck driving man
TTITLE12=Ray Sanders and Dottie Jack - She still lights a candle
TTITLE13=Valentine - This land is your land
EXTD=
EXTT0=
EXTT1=
EXTT2=
EXTT3=
EXTT4=
EXTT5=
EXTT6=
EXTT7=
EXTT8=
EXTT9=
EXTT10=
EXTT11=
EXTT12=
EXTT13=
PLAYORDER=
